Coordinates
version=1
nRows=7
nColumns=40
inDegrees=yes

Units are S.I. units (second, meters, Newtons, ...)
Angles are in degrees.

endheader
time	pelvis_tilt	pelvis_list	pelvis_rotation	pelvis_tx	pelvis_ty	pelvis_tz	hip_flexion_r	hip_adduction_r	hip_rotation_r	knee_angle_r	knee_angle_r_beta	ankle_angle_r	subtalar_angle_r	mtp_angle_r	hip_flexion_l	hip_adduction_l	hip_rotation_l	knee_angle_l	knee_angle_l_beta	ankle_angle_l	subtalar_angle_l	mtp_angle_l	lumbar_extension	lumbar_bending	lumbar_rotation	arm_flex_r	arm_add_r	arm_rot_r	elbow_flex_r	pro_sup_r	wrist_flex_r	wrist_dev_r	arm_flex_l	arm_add_l	arm_rot_l	elbow_flex_l	pro_sup_l	wrist_flex_l	wrist_dev_l
      8.29000000	     -4.86679659	     -4.09287092	      0.22856374	      0.94511765	      0.91636521	      0.41700347	     14.41430919	     -8.60681065	    -10.39790837	     60.14597753	     60.14597753	      1.49089342	    -19.12265683	     11.65994369	     20.29518478	      0.20310533	      2.58073766	     31.77066341	     31.77066341	     18.58700277	    -16.96013185	      8.32639929	     -9.40542381	      3.95555852	      2.66807413	     27.66622407	    -16.00284317	    -12.88430734	     26.26317357	     45.68977480	      0.00000000	      0.00000000	     11.56129018	    -12.87603074	     17.26841033	     28.53602508	     44.46080146	      0.00000000	      0.00000000
      8.31100000	     -4.58054603	     -4.18613089	     -0.28991354	      0.94377863	      0.91454394	      0.41497310	     16.32309569	     -8.60186309	     -9.61171938	     62.02479792	     62.02479792	      3.10816987	    -19.20412507	     13.29686714	     20.11275105	      0.16796748	      2.23627989	     32.82845565	     32.82845565	     19.62457255	    -17.08068334	      8.61079926	     -9.71128887	      4.42606808	      2.35247678	     24.20083895	    -15.53730459	    -13.11853078	     24.68663841	     45.81592967	      0.00000000	      0.00000000	     13.09082805	    -13.07191343	     16.87314527	     29.43617010	     44.60615066	      0.00000000	      0.00000000
      8.33200000	     -4.29706067	     -4.26381030	     -0.83587494	      0.94239823	      0.91287623	      0.41295793	     18.17757582	     -8.61508312	     -8.92603939	     63.52310452	     63.52310452	      4.31300503	    -19.28519188	     13.48387489	     19.81239930	      0.16610994	      1.91960718	     33.67651168	     33.67651168	     20.37431333	    -17.36489584	      8.43509826	    -10.06452260	      4.90570071	      2.10662141	     20.55250436	    -15.17998653	    -13.21103973	     23.22499901	     45.87417288	      0.00000000	      0.00000000	     14.66456255	    -13.35258264	     16.48243389	     30.58218007	     44.70376779	      0.00000000	      0.00000000
      8.35300000	     -3.99894170	     -4.31948414	     -1.42248435	      0.94100556	      0.91164650	      0.41120660	     20.05882989	     -8.51908441	     -8.16569461	     64.73946169	     64.73946169	      6.12605429	    -19.32006509	     15.83918096	     19.37383183	      0.16502586	      1.53685814	     34.32653036	     34.32653036	     21.29106340	    -17.48232029	      8.85508053	    -10.49648581	      5.34941454	      1.97602770	     16.57833048	    -14.84284680	    -13.70287805	     22.59936889	     45.97422733	      0.00000000	      0.00000000	     16.17619441	    -13.68845403	     15.57763660	     32.28002491	     44.90964402	      0.00000000	      0.00000000
      8.37400000	     -3.79534197	     -4.35215644	     -2.03645338	      0.93953103	      0.91081220	      0.40971880	     21.87979311	     -8.45091389	     -7.57178434	     65.31292054	     65.31292054	      7.22824995	    -19.36884005	     15.88223003	     18.88286714	      0.14823178	      1.07371824	     34.65412538	     34.65412538	     21.83705767	    -17.61949833	      8.73903076	    -10.81708340	      5.77167101	      1.83909313	     12.96676374	    -14.52341765	    -13.83673441	     21.21896897	     46.03258351	      0.00000000	      0.00000000	     17.81385979	    -14.07239455	     15.04489532	     33.53250169	     45.01923560	      0.00000000	      0.00000000
      8.39500000	     -3.59199584	     -4.43243214	     -2.72019690	      0.93805580	      0.91075640	      0.40870792	     23.56196635	     -8.20669904	     -7.00371323	     65.25117618	     65.25117618	      8.37981663	    -19.38906759	     16.30860093	     18.18838676	      0.03113769	      0.52311075	     34.61037194	     34.61037194	     22.30088316	    -17.65248450	      8.73705627	    -11.16796097	      6.20872800	      1.88002155	      9.31628804	    -14.25521216	    -14.12353454	     20.25551951	     46.09424862	      0.00000000	      0.00000000	     19.37756702	    -14.48569824	     14.23514352	     35.19348435	     45.16446011	      0.00000000	      0.00000000
      8.41600000	     -3.51289672	     -4.49153530	     -3.41926205	      0.93644999	      0.91134944	      0.40820498	     25.24591284	     -7.85832371	     -6.48792392	     64.57749341	     64.57749341	      9.56835427	    -19.38199832	     17.23687586	     17.45806956	     -0.10949431	     -0.08899537	     34.20326132	     34.20326132	     22.54208933	    -17.60797513	      8.70230113	    -11.43924983	      6.58845813	      1.64653512	      5.56120247	    -13.73414068	    -15.06592252	     20.69926732	     46.20865223	      0.00000000	      0.00000000	     20.44940705	    -15.00101382	     12.21854969	     37.68829888	     45.47439020	      0.00000000	      0.00000000
